<?xml version="1.0" encoding="utf-8"?>
<!-- Generator: Adobe Illustrator 24.0.1, SVG Export Plug-In . SVG Version: 6.00 Build 0)  -->
<svg version="1.1" id="Layer_1" xmlns="http://www.w3.org/2000/svg" xmlns:xlink="http://www.w3.org/1999/xlink" x="0px" y="0px"
	 viewBox="0 0 65.39 53.06" style="enable-background:new 0 0 65.39 53.06;" xml:space="preserve">
<style type="text/css">
	.st0{fill:#3D5378;}
</style>
<g>
	<g>
		<path class="st0" d="M4.39,40.99C3.39,33.76,4.8,27.04,8.86,20.96c4.06-6.08,9.71-9.98,16.85-11.94
			c-0.54-2.77,0.06-5.23,2.18-7.17c1.52-1.39,3.34-1.99,5.39-1.83c3.57,0.28,7.36,3.58,6.35,8.94c0.37,0.13,0.75,0.29,1.14,0.4
			c12.51,3.77,20.79,15.15,20.48,28.16c0,0.04,0.01,0.09,0,0.13c-0.47,2.05-0.19,3.55,1.96,4.8c2.15,1.25,2.63,4.16,1.79,6.51
			c-0.85,2.37-3.08,4.03-5.64,4.06c-3.95,0.04-7.91,0.02-11.86,0.02c-13.69,0-27.39,0.01-41.08,0c-3.73,0-6.52-2.73-6.41-6.28
			c0.07-2.31,1.2-4.02,3.18-5.17C3.55,41.38,3.94,41.21,4.39,40.99z M8.61,40.72c16.09,0,32.1,0,48.1,0
			c1.61-7.03-0.88-17.72-10.14-24.14c-8.26-5.72-19.27-5.78-27.59-0.15C10.99,21.84,6.58,32.11,8.61,40.72z M32.67,44.89
			c-8.55,0-17.1,0-25.66,0c-0.38,0-0.78-0.04-1.15,0.03c-1.1,0.2-1.76,0.88-1.76,2.01c0,1.13,0.67,1.8,1.76,2.01
			c0.37,0.07,0.76,0.03,1.15,0.03c17.1,0,34.21,0,51.31,0c0.38,0,0.78,0.04,1.15-0.03c1.1-0.21,1.77-0.88,1.77-2.01
			c0-1.13-0.67-1.8-1.76-2.01c-0.37-0.07-0.76-0.03-1.15-0.03C49.77,44.89,41.22,44.89,32.67,44.89z M32.54,8.2
			c0,0.01,0,0.02,0,0.03c0.72,0,1.45-0.06,2.16,0.02c0.76,0.08,0.98-0.25,1.02-0.92c0.1-1.54-1.1-3-2.68-3.21
			c-1.6-0.21-3.16,0.96-3.41,2.57c-0.2,1.27,0.08,1.57,1.37,1.52C31.52,8.18,32.03,8.2,32.54,8.2z"/>
		<path class="st0" d="M24.86,18.06c1.01-0.14,1.67,0.66,1.83,1.26c0.18,0.67,0.32,1.65-0.51,2.28c-0.27,0.21-0.69,0.45-1.06,0.64
			c-3.49,1.87-6.04,4.61-7.56,8.28c-0.05,0.12-0.1,0.23-0.15,0.35c-0.6,1.38-1.64,1.91-2.81,1.44c-1.08-0.43-1.51-1.6-1-2.9
			c1.97-4.99,5.36-8.68,10.17-11.06c0.19-0.09,0.39-0.18,0.59-0.23C24.52,18.08,24.7,18.08,24.86,18.06
			C24.93,17.98,24.79,18.14,24.86,18.06z"/>
	</g>
</g>
</svg>
