<?xml version="1.0" encoding="utf-8"?>
<!-- Generator: Adobe Illustrator 24.0.1, SVG Export Plug-In . SVG Version: 6.00 Build 0)  -->
<svg version="1.1" id="Layer_1" xmlns="http://www.w3.org/2000/svg" xmlns:xlink="http://www.w3.org/1999/xlink" x="0px" y="0px"
	 viewBox="0 0 49.18 41.64" style="enable-background:new 0 0 49.18 41.64;" xml:space="preserve">
<style type="text/css">
	.st0{fill:#3D5378;}
</style>
<g>
	<g>
		<path class="st0" d="M13.15,32.83c0-2.17-0.01-4.34,0-6.52c0.03-4.53,2.99-7.51,7.51-7.54c2.62-0.02,5.24-0.02,7.86,0
			c4.52,0.03,7.49,3,7.51,7.53c0.02,4.44,0.01,8.88,0,13.32c0,1.57-0.43,2.01-1.99,2.01c-6.3,0.01-12.6,0.01-18.89,0
			c-1.56,0-1.99-0.44-2-2.01C13.14,37.36,13.15,35.1,13.15,32.83z"/>
		<path class="st0" d="M33.09,8.54c-0.06,4.81-3.88,8.56-8.64,8.48c-4.72-0.08-8.43-3.92-8.37-8.66c0.07-4.65,3.97-8.44,8.59-8.36
			C29.38,0.09,33.15,3.91,33.09,8.54z"/>
		<path class="st0" d="M10.67,22.51c-0.68,6.39-0.18,12.71-0.33,18.99c-2.3,0-4.7,0.16-7.07-0.05c-1.78-0.16-3.16-1.93-3.21-3.8
			c-0.07-2.87-0.11-5.75,0-8.62c0.14-3.5,3.11-6.36,6.61-6.51C8.02,22.46,9.36,22.51,10.67,22.51z"/>
		<path class="st0" d="M38.83,41.59c-0.15-6.35,0.35-12.66-0.34-19.09c2.08,0.08,4.29-0.39,6.38,0.58c2.68,1.24,4.15,3.37,4.25,6.31
			c0.09,2.65,0.05,5.3,0.01,7.95c-0.03,2.31-1.58,4.05-3.88,4.21c-1.97,0.14-3.96,0.07-5.94,0.08
			C39.13,41.64,38.95,41.6,38.83,41.59z"/>
		<path class="st0" d="M9.61,20.66c-3.56-0.01-6.37-2.84-6.35-6.41c0.02-3.5,2.85-6.3,6.36-6.3c3.51,0,6.35,2.82,6.35,6.31
			C15.98,17.83,13.15,20.67,9.61,20.66z"/>
		<path class="st0" d="M45.91,14.29c0.01,3.56-2.81,6.38-6.37,6.38c-3.5-0.01-6.32-2.82-6.34-6.33c-0.02-3.54,2.83-6.39,6.38-6.38
			C43.09,7.96,45.9,10.78,45.91,14.29z"/>
	</g>
</g>
</svg>
